<svg width="50" height="50" viewBox="0 0 50 50" fill="none" xmlns="http://www.w3.org/2000/svg" xmlns:xlink="http://www.w3.org/1999/xlink">
                                                        <g clip-path="url(#clip0_365_731)">
                                                        <path d="M49.0228 30.4883C48.4846 30.4883 48.0459 30.9258 48.0459 31.4641C48.0459 31.725 48.1478 31.9337 48.3312 32.1183C48.5159 32.3029 48.7612 32.367 49.0221 32.367H49.0228C49.5611 32.367 49.9986 31.9669 49.9998 31.4282C49.9998 30.8892 49.5622 30.4883 49.0228 30.4883Z" fill="currentColor"></path>
                                                        <path d="M45.1168 30.4851L40.6784 30.4825L36.7321 23.6359L40.9405 16.3574C41.1152 16.0549 41.1156 15.6826 40.9412 15.3805L36.7466 8.1047L39.6343 3.55109C39.9231 3.09524 39.7881 2.49175 39.3322 2.20298C38.8767 1.91383 38.2732 2.04887 37.9841 2.50472L35.0712 7.08198L26.5961 7.06596H26.5957C26.2466 7.06596 25.9243 7.26203 25.75 7.56377L21.5385 14.8331L13.7253 14.814L11.6913 11.0882C11.5204 10.7738 11.1912 10.5804 10.8326 10.5804C10.6705 10.5804 10.5091 10.622 10.3657 10.7002C10.1368 10.8253 9.97009 11.0317 9.89647 11.2827C9.82246 11.533 9.85069 11.7966 9.97582 12.0262L12.0171 15.7604L8.00781 22.6959H0.976944C0.437164 22.6959 0 23.1335 0 23.6729C0 24.2123 0.437164 24.6498 0.976944 24.6498H8.08487L11.9751 31.4064L9.58405 34.8534C9.43565 35.067 9.37882 35.3287 9.42497 35.5846C9.47189 35.8417 9.61533 36.066 9.82933 36.2144C9.99336 36.3289 10.1856 36.3899 10.3851 36.3899C10.7056 36.3899 11.0065 36.2339 11.1889 35.9711L13.6677 32.402L21.5351 32.4074L25.47 39.233L23.0549 43.1278C22.7718 43.586 22.9134 44.1894 23.3707 44.4729C23.526 44.5686 23.7038 44.6194 23.8846 44.6194C24.2252 44.6194 24.5369 44.4466 24.7158 44.1574L27.1683 40.2L34.9556 40.2138L39.1796 47.5407C39.3608 47.8546 39.6889 48.0297 40.0269 48.0297C40.1924 48.0297 40.3603 47.9877 40.514 47.8992C40.9813 47.6295 41.1419 47.0322 40.8722 46.5649L36.6795 39.2925L40.6414 32.4364L45.1157 32.439C45.6539 32.439 46.0915 32.0015 46.0926 31.4632C46.0926 31.2023 45.9911 30.957 45.8065 30.7724C45.6226 30.5878 45.3774 30.4863 45.1168 30.4851ZM27.1587 9.04044L35.0338 9.0454L38.9671 15.8676L35.0468 22.6478L27.1717 22.6429L23.2388 15.8203L27.1587 9.04044ZM21.5153 30.4546L13.6734 30.4497L9.74007 23.6271L13.6822 16.8098L21.5126 16.8148L25.4517 23.6465L21.5153 30.4546ZM35.025 38.2412L27.1503 38.2362L23.2338 31.4426L27.1706 24.6338L35.0555 24.6387L38.9671 31.4236L35.025 38.2412Z" fill="currentColor"></path>
                                                        <path d="M8.96287 9.11746H8.96402C9.12614 9.11746 9.2875 9.0694 9.42979 8.9912C9.65944 8.86607 9.82576 8.65703 9.89976 8.40678C9.973 8.15578 9.94477 7.89066 9.81965 7.66216C9.64875 7.34744 9.31955 7.15137 8.96211 7.15137C8.79998 7.15137 8.63786 7.19218 8.49519 7.27115C8.26555 7.39551 8.09846 7.60226 8.02522 7.85213C7.95198 8.10313 7.98021 8.37283 8.10533 8.60133C8.27623 8.91605 8.60543 9.11746 8.96287 9.11746Z" fill="currentColor"></path>
                                                        <path d="M8.71453 37.8205C8.5505 37.706 8.35785 37.6458 8.15758 37.6458C7.83715 37.6458 7.53731 37.8029 7.35459 38.0658C7.04789 38.5083 7.15737 39.1178 7.59987 39.4257C7.7639 39.5397 7.95655 39.6004 8.15682 39.6004C8.47725 39.6004 8.77709 39.4432 8.95981 39.1804C9.26651 38.7379 9.15703 38.1283 8.71453 37.8205Z" fill="currentColor"></path>
                                                        <path d="M22.3421 46.1333C22.1868 46.0376 22.009 45.9868 21.8282 45.9868C21.4872 45.9868 21.1767 46.16 20.997 46.4488C20.8593 46.6708 20.8162 46.9332 20.8757 47.1877C20.9356 47.4414 21.0908 47.6573 21.3125 47.7942C21.4677 47.8896 21.6447 47.9407 21.8263 47.9407C22.1673 47.9407 22.4779 47.7675 22.6575 47.4787C22.7952 47.2567 22.8384 46.995 22.7788 46.741C22.7182 46.4869 22.5637 46.2714 22.3421 46.1333Z" fill="currentColor"></path>
                                                        <path d="M15.7954 9.10069C15.919 9.17241 16.0624 9.20827 16.2383 9.20827C16.4076 9.20827 16.5656 9.17241 16.6922 9.10069C16.8192 9.02898 16.8921 8.93132 16.8921 8.80772V5.99133H19.0413V8.80772C19.0413 8.93132 19.1157 9.02898 19.2397 9.10069C19.3633 9.17241 19.5193 9.20827 19.6951 9.20827C19.8645 9.20827 20.0034 9.17241 20.1304 9.10069C20.2574 9.02898 20.3112 8.93132 20.3112 8.80772V2.45473C20.3112 2.32465 20.262 2.22661 20.1384 2.16138C20.0144 2.09653 19.871 2.06372 19.6951 2.06372C19.5193 2.06372 19.3598 2.09653 19.2366 2.16138C19.1126 2.22661 19.0413 2.32465 19.0413 2.45473V5.01439H16.8925V2.45473C16.8925 2.32465 16.8177 2.22661 16.6941 2.16138C16.5705 2.09653 16.4141 2.06372 16.2383 2.06372C16.0624 2.06372 15.922 2.09653 15.7984 2.16138C15.6744 2.22661 15.6226 2.32465 15.6226 2.45473V8.80734C15.6222 8.93132 15.6714 9.02898 15.7954 9.10069Z" fill="currentColor"></path>
                                                        <path d="M46.7156 19.4606C46.5916 19.3954 46.4512 19.3625 46.2754 19.3625C46.0995 19.3625 45.9355 19.3954 45.8119 19.4606C45.6879 19.5254 45.612 19.6235 45.612 19.7536V22.3048H43.4628V19.7536C43.4628 19.6235 43.3949 19.5254 43.2713 19.4606C43.1473 19.3954 42.9943 19.3625 42.8185 19.3625C42.6426 19.3625 42.4977 19.3954 42.3737 19.4606C42.2501 19.5254 42.1929 19.6235 42.1929 19.7536V26.1062C42.1929 26.2301 42.2486 26.3278 42.3722 26.3995C42.4961 26.4712 42.6426 26.5071 42.8189 26.5071C42.9879 26.5071 43.1408 26.4712 43.2679 26.3995C43.3949 26.3278 43.4628 26.2301 43.4628 26.1062V23.2818H45.612V26.1066C45.612 26.2301 45.6929 26.3278 45.8165 26.3995C45.9404 26.4712 46.0995 26.5071 46.2757 26.5071C46.4447 26.5071 46.579 26.4712 46.7057 26.3995C46.8327 26.3278 46.8819 26.2301 46.8819 26.1066V19.7536C46.8819 19.6235 46.8392 19.5254 46.7156 19.4606Z" fill="currentColor"></path>
                                                        <path d="M4.52187 28.5889C4.69772 28.5889 4.84383 28.6133 4.97429 28.6621C5.10475 28.711 5.19897 28.7697 5.26421 28.838C5.32944 28.9066 5.38132 28.9913 5.42404 29.0924C5.466 29.1935 5.49156 29.2748 5.5011 29.3366C5.51102 29.3987 5.51865 29.472 5.52513 29.5567C5.53162 29.8237 5.74333 29.9572 6.16028 29.9572C6.3884 29.9572 6.55128 29.9133 6.64894 29.8252C6.7466 29.7371 6.79543 29.5727 6.79543 29.3316C6.79543 28.7716 6.57875 28.3219 6.1454 27.9831C5.71205 27.6444 5.15358 27.4746 4.46922 27.4746C3.79822 27.4746 3.26759 27.6558 2.85065 28.0171C2.4337 28.3787 2.23877 28.944 2.23877 29.7127V32.4398C2.23877 33.2085 2.43217 33.7738 2.84607 34.1355C3.25958 34.4967 3.79517 34.6779 4.46655 34.6779C5.15701 34.6779 5.71548 34.5017 6.14883 34.1499C6.58218 33.7982 6.79733 33.329 6.79733 32.7427C6.79733 32.5016 6.74583 32.3372 6.64474 32.2491C6.54366 32.1613 6.37886 32.1171 6.15074 32.1171C5.75325 32.1171 5.54459 32.2506 5.52513 32.5176C5.51865 32.6546 5.50377 32.7706 5.48126 32.8648C5.45837 32.9594 5.41565 33.067 5.35385 33.1875C5.29205 33.308 5.19096 33.4007 5.05096 33.466C4.91096 33.5312 4.74998 33.5636 4.54132 33.5636C3.84399 33.5636 3.50906 33.189 3.50906 32.4398V29.7131C3.50868 28.9639 3.83751 28.5889 4.52187 28.5889Z" fill="currentColor"></path>
                                                        </g>
                                                    </svg>